<?xml version="1.0" encoding="utf-8"?>
<!-- Generator: Adobe Illustrator 16.0.0, SVG Export Plug-In . SVG Version: 6.00 Build 0)  -->
<!DOCTYPE svg PUBLIC "-//W3C//DTD SVG 1.1//EN" "http://www.w3.org/Graphics/SVG/1.1/DTD/svg11.dtd">
<svg version="1.1" id="Layer_1" xmlns="http://www.w3.org/2000/svg" xmlns:xlink="http://www.w3.org/1999/xlink" x="0px" y="0px"
	 width="200px" height="200px" viewBox="-13 -62 200 200" enable-background="new -13 -62 200 200" xml:space="preserve">
<g>
	<rect x="76.93" y="100.09" fill="#FFFFFF" width="20.315" height="20.316"/>
	<polygon fill="#DB0011" points="107.434,110.219 97.245,100.09 97.245,120.347 	"/>
	<polygon fill="#DB0011" points="87.117,110.219 97.245,100.09 76.93,100.09 	"/>
	<polygon fill="#DB0011" points="66.802,110.219 76.93,120.347 76.93,100.09 	"/>
	<polygon fill="#DB0011" points="87.117,110.219 76.93,120.347 97.245,120.347 	"/>
	<path fill="#DB0011" d="M87.762,59.399h7.26c2.108,0,2.809-0.233,3.571-0.76c0.527-0.353,0.937-1.056,1.112-1.818
		c0.35-1.695-0.819-2.398-2.225-2.458l0,0c1.229-0.293,2.281-0.88,2.693-1.992l0.175,7.088h3.454c1.992,0,2.694-1.818,2.694-1.818
		l2.105-4.271h0.06l0.468,6.089h3.104c2.226,0,2.985-1.992,2.985-1.992l2.694-6.148l-1.695,8.141h1.872
		c2.398,0,2.691-1.932,2.691-1.932l0.354-1.759h2.632c2.052,0,2.345-1.579,2.345-1.579l0.117-0.526h-4.688l0.412-2.111h2.926
		c1.992,0,2.284-1.52,2.284-1.52l0.118-0.586h-8.605h-0.413h-1.52c-1.875,0-2.344,1.346-2.344,1.346l-2.047,4.86h-0.06l-0.525-6.266
		h-3.165c-1.52,0-2.165,1.405-2.165,1.405l-2.398,4.86h-0.06v-6.266h-2.165c-1.406,0-1.76,0.763-1.816,1.231
		c-0.409-0.819-1.581-1.231-3.574-1.231h-4.976c-1.64,0-1.812,1.289-1.812,1.289L87.762,59.399 M93.146,53.427l0.471-2.165h1.229
		c1.288,0,1.521,0.409,1.346,1.109c-0.117,0.646-0.587,1.112-1.812,1.112h-1.233V53.427z M92.271,57.584l0.525-2.401h1.23
		c1.405,0,1.872,0.353,1.697,1.232c-0.176,0.819-0.76,1.226-2.225,1.226h-1.229V57.584z"/>
	<g>
		<polygon points="53.335,55.126 49.003,55.126 49.003,59.399 46.836,59.399 46.836,49.387 49.003,49.387 49.003,53.483 
			53.335,53.483 53.335,49.387 55.501,49.387 55.501,59.399 53.335,59.399 		"/>
		<path d="M60.712,59.573c-2.167,0-3.922-0.877-3.98-3.278h2.165c0,1.053,0.645,1.698,1.816,1.698c0.878,0,1.874-0.466,1.874-1.465
			c0-0.76-0.703-0.993-1.815-1.346l-0.703-0.233c-1.581-0.467-3.161-1.053-3.161-2.868c0-2.226,2.049-2.988,3.98-2.988
			s3.631,0.706,3.631,2.872h-2.167c-0.058-0.939-0.585-1.466-1.639-1.466c-0.819,0-1.581,0.412-1.581,1.289
			c0,0.763,0.643,0.937,2.049,1.405L62,53.427c1.699,0.526,2.811,1.113,2.811,2.809C64.87,58.696,62.645,59.573,60.712,59.573"/>
		<path d="M66.099,49.387h3.455c1.113,0,1.522,0,1.99,0.119c1.229,0.293,2.107,1.053,2.107,2.398c0,1.289-0.821,1.933-1.991,2.225
			c1.348,0.234,2.343,0.937,2.343,2.399c0,2.285-2.225,2.812-3.981,2.812h-3.923V49.387z M69.554,53.543
			c0.936,0,1.932-0.173,1.932-1.346c0-1.053-0.938-1.286-1.757-1.286h-1.522v2.691h1.348V53.543z M69.786,57.877
			c0.997,0,1.992-0.236,1.992-1.462c0-1.173-0.879-1.466-1.874-1.466h-1.698v2.928H69.786z"/>
		<path d="M79.682,59.573c-3.22,0-4.684-2.046-4.684-5.091c0-2.987,1.582-5.27,4.8-5.27c1.991,0,3.923,0.877,3.983,3.158h-2.225
			c-0.116-0.993-0.761-1.52-1.758-1.52c-1.932,0-2.517,2.105-2.517,3.688c0,1.581,0.585,3.453,2.459,3.453
			c0.997,0,1.7-0.526,1.874-1.521h2.225C83.605,58.696,81.73,59.573,79.682,59.573"/>
		<g>
			<path d="M40.572,74.096l-2.284-8.314l-2.284,8.314H33.37l-2.81-10.189h2.342l1.99,8.314l2.226-8.314h2.693l2.166,8.314
				l1.932-8.314h2.167l-2.751,10.189H40.572z"/>
			<path d="M49.236,74.27c-2.342,0-3.864-1.346-3.864-3.747c0-2.342,1.581-3.688,3.864-3.688c2.342,0,3.806,1.346,3.806,3.688
				S51.579,74.27,49.236,74.27z M49.236,68.064c-1.404,0-1.697,1.346-1.697,2.458s0.351,2.519,1.697,2.519
				c1.347,0,1.758-1.406,1.758-2.519S50.643,68.064,49.236,68.064z"/>
			<path d="M57.96,68.707c-1.347,0-1.815,0.763-1.815,2.052v3.337h-2.049v-5.329c0-0.586-0.058-1.112-0.058-1.759h1.991l0.058,1.292
				c0.468-0.938,1.171-1.349,2.166-1.349c0.118,0,0.235,0,0.352,0v1.756C58.37,68.707,58.136,68.707,57.96,68.707z"/>
			<path d="M59.425,63.906h2.049v10.189h-2.049V63.906z"/>
			<path d="M67.796,73.157c-0.643,0.76-1.23,1.053-2.225,1.053c-2.166,0-3.162-1.695-3.162-3.688c0-1.756,0.88-3.747,3.044-3.747
				c0.997,0,1.7,0.292,2.285,1.053V63.85h2.048v8.255c0,0.643,0,1.286,0.059,1.872h-2.048V73.157z M66.099,68.121
				c-1.288,0-1.58,1.289-1.58,2.345c0,1.112,0.292,2.458,1.696,2.458c1.288,0,1.64-1.346,1.64-2.401
				C67.854,69.41,67.445,68.121,66.099,68.121z"/>
			<path d="M79.037,74.096h-2.224v-8.55h-3.162v-1.64H82.2v1.64h-3.163V74.096z"/>
			<path d="M84.775,74.27c-2.343,0-3.865-1.346-3.865-3.747c0-2.342,1.582-3.688,3.865-3.688c2.342,0,3.807,1.346,3.807,3.688
				S87.059,74.27,84.775,74.27z M84.775,68.064c-1.404,0-1.698,1.346-1.698,2.458s0.352,2.519,1.698,2.519
				c1.347,0,1.756-1.406,1.756-2.519C86.474,69.41,86.122,68.064,84.775,68.064z"/>
			<path d="M94.436,72.983c-0.644,0.82-1.29,1.17-2.341,1.17c-1.757,0-2.578-0.936-2.578-2.636v-4.566h2.051v3.748
				c0,0.993,0.06,2.048,1.346,2.048c1.289,0,1.522-1.112,1.522-2.165v-3.688h2.048v4.447c0,0.879,0,1.756,0.062,2.635h-2.053
				L94.436,72.983z"/>
			<path d="M101.521,68.707c-1.347,0-1.815,0.763-1.815,2.052v3.337h-2.048v-5.329c0-0.586-0.062-1.112-0.062-1.759h1.993
				l0.06,1.292c0.466-0.938,1.169-1.349,2.166-1.349c0.116,0,0.232,0,0.35,0v1.756C101.931,68.707,101.755,68.707,101.521,68.707z"
				/>
			<path d="M108.956,68.181h4.274v1.579h-4.274v4.336h-2.166V63.906h6.732v1.583h-4.566V68.181z"/>
			<path d="M114.635,63.906h2.108v1.64h-2.108V63.906z M114.635,67.008h2.05v7.088h-2.05V67.008z"/>
			<path d="M122.713,70.346c0-0.992-0.06-2.046-1.345-2.046c-1.287,0-1.466,1.46-1.466,2.223v3.573h-2.046v-5.682
				c0-0.467,0-0.936-0.06-1.406h2.049v1.057c0.643-0.82,1.289-1.17,2.342-1.17c1.759,0,2.578,0.934,2.578,2.632v4.569h-2.053V70.346
				z"/>
			<path d="M130.382,73.098c-0.582,0.819-1.285,1.112-2.281,1.112c-1.403,0-2.459-0.7-2.459-2.165c0-2.226,2.519-2.399,4.158-2.399
				h0.582v-0.292c0-0.763-0.173-1.466-1.053-1.466c-0.76,0-1.112,0.469-1.112,1.112h-2.105c0-1.756,1.698-2.225,3.158-2.225
				c1.932,0,3.105,0.412,3.105,2.751v2.108c0,0.82,0,1.583,0.119,2.461h-1.932C130.441,73.743,130.382,73.45,130.382,73.098z
				 M130.382,70.64c-0.173,0-0.35,0-0.525,0c-0.878,0-2.166,0.176-2.166,1.289c0,0.643,0.526,1.055,1.172,1.055
				c1.347,0,1.579-1.172,1.579-2.225V70.64H130.382z"/>
			<path d="M133.72,63.906h2.053v10.189h-2.053V63.906z"/>
			<path d="M139.985,74.27c-1.696,0-3.16-0.526-3.16-2.458h2.048c0,0.819,0.35,1.286,1.229,1.286c0.587,0,1.174-0.351,1.174-0.934
				c0-0.529-0.527-0.822-1.347-0.998l-0.763-0.174c-1.056-0.233-2.108-0.703-2.108-1.992c0-1.698,1.699-2.165,3.044-2.165
				c1.583,0,2.986,0.526,3.046,2.284h-1.992c0-0.705-0.407-1.112-1.054-1.112c-0.466,0-1.052,0.233-1.052,0.76
				s0.526,0.76,1.346,0.937l0.818,0.177c1.113,0.232,2.226,0.702,2.226,2.049C143.323,73.804,141.508,74.27,139.985,74.27z"/>
		</g>
	</g>
	<g>
		<path fill="#DB0011" d="M60.712,79.539h3.806c0.585,0,1.756,0,2.517,0.468c0.937,0.585,1.112,1.582,1.112,2.168
			c0,0.351-0.058,1.052-0.585,1.522c-0.06,0.06-0.585,0.526-1.17,0.7l0,0c1.521,0.292,2.166,1.404,2.166,2.46
			c0,1.17-0.703,1.99-1.464,2.402c-0.761,0.407-2.166,0.407-2.575,0.407h-3.806V79.539z M62.761,83.638h1.522
			c0.645,0,1.757,0,1.757-1.287c0-1.288-1.055-1.288-1.757-1.288h-1.522V83.638z M62.761,88.027h1.464c0.996,0,2.107,0,2.107-1.345
			c0-1.466-1.289-1.466-2.343-1.466h-1.229V88.027z"/>
		<path fill="#DB0011" d="M73.651,89.667c-0.06-0.407-0.06-0.76-0.06-0.993c-0.761,1.112-1.754,1.112-2.106,1.112
			c-1.055,0-1.464-0.294-1.757-0.586c-0.41-0.41-0.644-0.996-0.644-1.58c0-0.585,0.176-1.581,1.521-2.225
			c0.88-0.413,2.109-0.413,2.812-0.413c0-0.466,0-0.7-0.118-0.935c-0.176-0.527-0.702-0.584-0.937-0.584
			c-0.293,0-0.585,0.113-0.761,0.406c-0.174,0.237-0.174,0.47-0.174,0.646h-2.051c0-0.353,0.058-1.112,0.819-1.699
			c0.645-0.467,1.464-0.586,2.167-0.586c0.587,0,1.816,0.119,2.519,0.938c0.468,0.587,0.468,1.406,0.468,1.756v2.869
			c0,0.585,0.058,1.229,0.176,1.815h-1.874V89.667z M71.134,87.501c0,0.47,0.352,0.997,0.995,0.997c0.35,0,0.702-0.178,0.879-0.41
			c0.352-0.468,0.41-0.996,0.41-1.759C72.07,86.215,71.134,86.623,71.134,87.501z"/>
		<path fill="#DB0011" d="M76.638,83.87c0,0,0-0.819-0.058-1.285h1.99l0.058,1.053c0.177-0.353,0.761-1.23,2.283-1.23
			c1.406,0,1.991,0.819,2.167,1.35c0.176,0.407,0.176,0.819,0.176,2.106v3.863h-2.107v-4.391c0-0.294,0-0.526-0.118-0.76
			c-0.176-0.294-0.469-0.587-0.995-0.587c-0.468,0-0.878,0.234-1.054,0.527c-0.116,0.173-0.234,0.525-0.234,1.053v4.157h-2.107
			V83.87z"/>
		<path fill="#DB0011" d="M91.333,82.585c-0.06,0.585-0.119,1.053-0.119,1.755v5.271c0,2.635-2.165,2.867-3.511,2.867
			c-0.996,0-2.986-0.116-3.104-2.285h1.991c0,0.237,0.116,1,1.229,1c0.643,0,1.169-0.294,1.288-0.94
			c0.061-0.35,0.061-0.585,0.117-1.697c-0.644,0.878-1.405,0.997-1.932,0.997c-2.051,0-2.988-1.757-2.988-3.513
			c0-1.815,0.997-3.514,3.046-3.514c1.286,0,1.756,0.701,1.989,0.995l0.06-0.936H91.333z M87.762,88.147
			c1.464,0,1.464-1.699,1.464-2.052c0-0.819-0.177-2.166-1.405-2.166c-0.762,0-1.406,0.587-1.406,2.109
			C86.356,86.389,86.356,88.147,87.762,88.147z"/>
		<path fill="#DB0011" d="M92.561,79.539h2.051v5.971l2.166-2.984h2.343l-2.459,3.104l2.575,4.038h-2.459l-2.166-3.865v3.865h-2.051
			V79.539z"/>
		<path fill="#DB0011" d="M102.867,82.407c2.578,0,3.69,1.757,3.69,3.748c0,1.992-1.174,3.805-3.75,3.805
			c-2.047,0-3.628-1.227-3.628-3.745C99.177,84.457,100.055,82.407,102.867,82.407z M102.867,88.498
			c0.936,0,1.522-0.527,1.522-2.459c0-0.938-0.178-2.226-1.582-2.226c-1.521,0-1.521,1.756-1.521,2.401
			C101.287,87.795,101.871,88.498,102.867,88.498z"/>
		<path fill="#DB0011" d="M107.49,79.539h2.052v5.971l2.166-2.984h2.342l-2.459,3.104l2.575,4.038h-2.458l-2.166-3.865v3.865h-2.052
			V79.539z"/>
	</g>
	<g>
		<g>
			<g>
				<path fill="#DB0011" d="M81.498-32.755L81.498-32.755c-0.352,0.116-0.761,0.293-1.29,0.584
					c-2.283-3.161-9.073-8.898-9.073-8.898c-8.257,3.631-12.999,9.075-12.999,9.075c6.968,1.756,13.818,5.036,13.818,5.036
					c0.761-0.587,1.406-1.113,2.049-1.64c0.352,0.233,2.107,1.404,4.391,3.103c0.82-0.938,3.162-2.986,6.03-4.273
					c-0.058-0.118-0.585-1.23-2.107-3.279C82.023-32.932,81.73-32.813,81.498-32.755L81.498-32.755z"/>
			</g>
			<g>
				<path fill="#DB0011" d="M74.413-19.056c-4.04-1.112-6.968-1.404-6.968-1.404c-0.175,0.292-0.409,0.703-0.643,1.113
					c-0.41,0.701-0.879,1.403-0.821,1.403c0,0-6.206-0.409-16.745,1.523c0,0-2.868,8.431-1.17,18.735c0,0,7.377-5.914,16.687-9.603
					c0,0-0.176-0.995-0.118-2.81c4.919-1.405,8.255-1.815,8.607-1.815C73.066-14.079,73.534-16.831,74.413-19.056z"/>
			</g>
			<g>
				<path fill="#DB0011" d="M74.822-4.477c-0.058,0.059-4.274,2.283-7.259,4.918l0.527,0.994c0.234,0.411,0.468,0.821,0.761,1.231
					c-0.821,0.761-6.558,6.381-11.358,14.402c0,0,0.527,0.645,1.581,1.58c0.41,0.352,0.878,0.761,1.404,1.229l-1.522,3.338
					c8.373,8.432,16.16,10.07,16.16,10.07l0.41-6.031c-2.225-0.409-3.571-0.878-3.571-0.878s0.703-7.143,4.976-16.979
					c0,0-0.877-0.293-2.284-1.229c0.058-0.116,2.869-4.742,4.333-6.792C77.105-0.378,75.583-2.429,74.822-4.477z"/>
			</g>
			<g>
				<path fill="#DB0011" d="M103.92,21.05c-0.761,0.645-1.64,1.229-2.575,1.757c-0.117-0.176-3.455-5.503-5.797-12.997
					c0,0-0.762,0.292-2.168,0.644c-0.113-0.468-0.526-2.751-0.7-3.631c-1.991,0.118-5.505-0.526-6.967-1.111
					c-0.06,0.117-0.937,3.278-1.171,5.562l0,0c0,0,0.176,0,0.468,0.059c0.234,0,0.41,0.059,0.585,0.059c0,0,0.703,0.058,1.112,0.058
					c-0.058,0.411-0.703,7.319,1.055,15.751c0,0,0.701-0.117,0.995-0.176c0.119,0,0.232-0.059,0.352-0.059
					c0.761-0.117,1.58-0.293,1.873-0.352c0.995,3.571,2.458,7.787,2.458,7.787c8.607-1.112,15.81-6.44,15.81-6.44
					C107.258,25.792,103.92,21.05,103.92,21.05z"/>
			</g>
			<g>
				<path fill="#DB0011" d="M126.519-7.054c-0.233-6.497-2.752-12.47-2.752-12.47c-5.617,2.635-9.367,3.747-9.367,3.747
					c0.235,0.645,0.469,1.404,0.646,2.166l-3.69,0.644c0.119,1.699-0.294,5.387-1.228,7.496c2.105,0.584,5.97,1.17,5.97,1.17
					c0-0.411,0-0.82,0-1.17c0-0.471,0-0.88-0.06-1.289C120.488-6.408,126.519-7.054,126.519-7.054z"/>
			</g>
			<g>
				<path fill="#DB0011" d="M108.78-37.848c0,0-1.583,4.331-3.806,8.254l1.64,1.348l-1.35,1.872c1.525,1.348,3.397,3.806,4.394,6.03
					c0.291-0.175,0.703-0.468,1.054-0.644c0.644-0.352,1.112-0.702,1.112-0.702c-0.116-0.234-0.233-0.469-0.35-0.644
					c-0.234-0.41-0.47-0.762-0.703-1.112c0.116-0.117,3.278-2.752,6.85-6.5C117.562-29.945,114.166-34.452,108.78-37.848z"/>
			</g>
			<g>
				<path fill="#DB0011" d="M98.942-30.238l0.587-2.459l0,0c0,0-0.233-0.116-0.587-0.234l0,0c-0.35-0.116-0.819-0.291-1.462-0.526
					c0.057-0.585,0.586-5.328,0.35-9.426c0,0-4.857-1.874-12.763-1.464c0,0,2.227,4.449,3.809,9.836c0,0,0.76-0.117,2.281,0
					c0.057,0.352,0.351,1.698,0.47,3.103C94.259-31.525,96.367-31.116,98.942-30.238z"/>
			</g>
			<path fill="#DB0011" d="M115.865,0.734c-0.06,0.761-0.234,1.581-0.47,2.459c-0.058,0-4.04-1.698-7.846-3.923
				c-1.932,2.517-4.45,4.509-7.317,5.854c0.409,0.645,1.169,1.874,1.169,1.874c0.294-0.234,0.586-0.468,0.819-0.645
				c0.472-0.409,0.879-0.761,0.879-0.761s2.402,3.221,7.612,7.904l0,0c0.235-0.293,0.409-0.586,0.528-0.762l0,0
				c0.234-0.352,0.527-0.761,0.82-1.347c4.33,3.279,8.312,5.445,8.312,5.445c4.507-7.025,5.506-13.642,5.506-13.642
				C120.959,2.315,115.865,0.734,115.865,0.734z"/>
		</g>
		<g>
			<g>
				<g>
					<path d="M74.764-20.168c0.292-0.585,0.585-1.171,0.879-1.756c-0.938-0.468-3.044-1.347-6.031-2.225
						c0,0-0.878,1.229-1.464,2.283c-0.527-0.117-8.606-1.58-16.277-1.055c0,0-0.996,1.874-1.874,4.216
						c9.25-1.229,15.398-0.819,16.745-0.703l0,0c0.235-0.409,0.469-0.819,0.645-1.111c0.292-0.527,0.468-0.82,0.761-1.347
						C68.5-21.749,71.309-21.279,74.764-20.168z"/>
				</g>
				<path d="M57.493,17.069L57.493,17.069c-0.938-0.996-1.522-1.64-1.522-1.64C61.005,7.877,67.503,1.964,68.09,1.436l-0.527-0.994
					c-0.293-0.586-0.585-1.171-0.585-1.171c2.576-2.108,6.205-4.04,7.377-4.684c-0.234-0.586-0.411-1.23-0.585-1.815
					c-0.703,0.293-2.051,0.82-3.396,1.522c-1.932,0.937-4.45,2.342-4.45,2.342c0.292,0.819,0.527,1.522,1.055,2.635
					C60.887,3.72,54.917,9.985,52.165,13.79c1.755,3.337,3.922,6.147,5.328,7.787l1.521-2.928l0,0
					C58.02,17.714,57.493,17.069,57.493,17.069z"/>
				<g>
					<path d="M85.653,11.331c-0.174,0-0.41,0-0.585-0.059c-0.292,0-0.468-0.058-0.468-0.058l0,0
						c-0.703-0.059-1.346-0.177-1.346-0.177c-0.06,0.118-1.64,7.202-1.347,16.452c0,0,1.932,0.059,3.923-0.176
						C84.658,19.353,85.537,12.385,85.653,11.331z"/>
					<path d="M82.902,4.422c-0.41,1.113-1.64,4.158-2.166,6.09c0,0,1.464,0.41,2.517,0.526c0.234-1.874,1.112-4.742,1.464-5.738
						C84.073,5.067,83.487,4.773,82.902,4.422z"/>
					<g>
						<path d="M91.101,34.633c0,0-1.112-4.156-1.932-7.669c-0.12,0-0.236,0.059-0.353,0.059c-0.294,0.059-0.996,0.176-0.996,0.176
							c-0.762,0.116-1.581,0.234-1.99,0.234c0,0,0.701,5.151,1.287,7.552c0,0,2.052-0.059,4.04-0.233L91.101,34.633z"/>
					</g>
				</g>
				<path d="M97.537,6.18c0.236,0.468,0.82,1.814,1.056,2.458c0,0,0.819-0.352,1.875-1.054c-0.06-0.117-0.879-1.522-1.112-2.049
					C98.77,5.77,98.183,5.945,97.537,6.18z"/>
				<g>
					<path d="M100.524,7.584c0.058,0.118,2.987,5.27,7.085,9.895c0,0,1.053-1.17,2.049-2.519c-4.566-4.625-7.085-8.077-7.438-8.605
						c-0.233,0.234-0.525,0.468-0.819,0.645C101.052,7.174,100.761,7.351,100.524,7.584z"/>
				</g>
				<path d="M108.956-2.896c3.688,1.521,6.909,2.459,6.909,2.459c0.173-1.521,0.173-2.635,0.173-2.635s-4.33-0.878-6.264-1.581
					C109.6-4.009,109.309-3.423,108.956-2.896z"/>
				<g>
					<g>
						<path d="M116.158-5.471c0,0.35,0,0.759,0,1.17c0,0.41,0,0.82,0,1.288c5.619,1.112,10.539,1.229,10.539,1.229
							c0.114-1.055,0.114-3.455,0.114-3.455C126.169-5.238,120.315-4.944,116.158-5.471z"/>
					</g>
				</g>
				<g>
					<g>
						<path d="M118.85-28.539c-3.688,3.454-7.259,6.089-7.435,6.206c0.116,0.233,0.232,0.409,0.353,0.644
							c0.232,0.41,0.466,0.819,0.7,1.229c0,0,4.275-2.399,8.08-5.562C120.608-26.022,119.902-27.135,118.85-28.539z"/>
					</g>
					<g>
						<g>
							<path d="M110.185-19.114c0.236,0.587,0.411,1.229,0.587,1.874c0.35-0.117,1.756-0.703,2.635-1.171
								c0,0-0.413-1.055-0.938-1.99L110.185-19.114z"/>
						</g>
					</g>
				</g>
				<g>
					<path d="M100.934-32.11l-0.701,2.342c0.585,0.292,1.169,0.584,1.698,0.878c0.177-0.352,0.526-1.229,0.937-2.283
						C102.867-31.116,101.755-31.76,100.934-32.11z"/>
				</g>
				<g>
					<g>
						<path d="M99.705-42.357c0.057,4.099-0.763,9.426-0.819,9.426l0,0c0.351,0.118,0.584,0.234,0.584,0.234l0,0
							c0,0,1.348,0.526,1.404,0.587c0.121-0.41,1.233-4.45,1.759-9.135C102.633-41.245,101.111-41.889,99.705-42.357z"/>
					</g>
				</g>
				<g>
					<path d="M86.004-34.103c-0.585,0.118-2.283,0.586-2.283,0.586c-3.104-5.328-7.083-9.484-7.083-9.484
						c-1.874,0.527-3.278,1.054-3.572,1.17c0.468,0.41,6.381,5.915,8.432,9.076l0,0c0.174-0.059,0.525-0.177,0.877-0.352
						c0.645-0.234,1.347-0.468,1.347-0.468c0.996,1.522,1.582,2.692,1.874,3.277c0.587-0.233,1.229-0.409,1.874-0.585
						C86.942-32.229,86.004-34.103,86.004-34.103z"/>
				</g>
			</g>
			<g>
				<path d="M110.655,13.439C110.655,13.498,110.655,13.498,110.655,13.439c-0.471,0.702-1.056,1.463-1.056,1.463
					c0.059,0.06,3.747,3.689,7.318,6.383c0,0,1.053-1.229,2.225-2.752c-0.409-0.235-4.037-2.576-7.902-5.854l0,0
					C111.121,12.854,110.888,13.146,110.655,13.439z"/>
			</g>
		</g>
		<ellipse fill="#FFFFFF" cx="92.328" cy="-12.322" rx="16.452" ry="16.452"/>
	</g>
</g>
</svg>
